/* XPM */
static char *_a6315fda35e47fab2031137179a3c29YZ55mW8HW0xGjgOy[] = {
/* columns rows colors chars-per-pixel */
"32 32 121 2 ",
"   c #4D3D3E",
".  c #533E3B",
"X  c #5B423F",
"o  c #463C45",
"O  c #4B3E46",
"+  c #4E3F48",
"@  c #503F46",
"#  c #534146",
"$  c #5D4342",
"%  c #524048",
"&  c #5C454A",
"*  c #634644",
"=  c #664843",
"-  c #694944",
";  c #61474A",
":  c #63484B",
">  c #6B4B4A",
",  c #724E4A",
"<  c #77514C",
"1  c #7B534D",
"2  c #7B5452",
"3  c #A57A3F",
"4  c #855E47",
"5  c #81574D",
"6  c #845C49",
"7  c #885E4D",
"8  c #815751",
"9  c #855954",
"0  c #8C5C56",
"q  c #8F5E58",
"w  c #8F6646",
"e  c #966D42",
"r  c #93694D",
"t  c #9B7143",
"y  c #9D764A",
"u  c #93605A",
"i  c #A67C44",
"p  c #A4734B",
"a  c #B98B3D",
"s  c #CE9F3E",
"d  c #DDA72D",
"f  c #DEA92F",
"g  c #DFA932",
"h  c #D5A73F",
"j  c #E3AE2F",
"k  c #E6B32F",
"l  c #E2AF34",
"z  c #E6B232",
"x  c #E9B631",
"c  c #EAB831",
"v  c #E5B33B",
"b  c #EDBD3B",
"n  c #EFC03D",
"m  c #F0C23E",
"M  c #AC834C",
"N  c #AF884C",
"B  c #B28E43",
"V  c #BB8D43",
"C  c #B38A4D",
"Z  c #BB9143",
"A  c #BD944D",
"S  c #BF9151",
"D  c #C49B4F",
"F  c #C09353",
"G  c #CFA54B",
"H  c #D8AC45",
"J  c #D0A454",
"K  c #DEB554",
"L  c #EBBC43",
"P  c #E5BB4B",
"I  c #EDBF49",
"U  c #E3BB55",
"Y  c #EEC045",
"T  c #F1C441",
"R  c #F4C947",
"E  c #F1C54D",
"W  c #F4C848",
"Q  c #F5C948",
"!  c #F5CA49",
"~  c #F5C94A",
"^  c #F5CB4A",
"/  c #F6CC4C",
"(  c #F7CD4D",
")  c #F7CD4E",
"_  c #F7CD4F",
"`  c #ECC350",
"'  c #EEC652",
"]  c #EDC454",
"[  c #EEC554",
"{  c #F2C751",
"}  c #F0C755",
"|  c #F3C850",
" . c #F4CA52",
".. c #F4CB53",
"X. c #F3CA55",
"o. c #F1CB57",
"O. c #F5CC55",
"+. c #F7CE56",
"@. c #F8CF50",
"#. c #F9CF50",
"$. c #F8CF53",
"%. c #F5CE58",
"&. c #F9D050",
"*. c #FAD151",
"=. c #FAD253",
"-. c #FBD253",
";. c #F9D154",
":. c #FAD154",
">. c #FBD354",
",. c #FAD255",
"<. c #FBD356",
"1. c #FAD359",
"2. c #FCD558",
"3. c #FCD559",
"4. c #FDD659",
"5. c #FDD75B",
"6. c #FCD65C",
"7. c #FDD75C",
"8. c #FED95D",
"9. c #FFD95E",
"0. c #FFDA5F",
/* pixels */
"o & , 1 , < < < < < 1 , # o @ % O & > 1 < < < < < < 1 , @ o + @ ",
"# ; , < 1 < , 1 < < 1 , > & # @ # : , 1 < 1 < < 1 < 1 , > & # @ ",
", , < 1 < < 1 < < < < 1 9 2 & # > < < 1 < < < < < < < 1 9 2 ; + ",
"1 1 < < < < < < < < < 2 q 0 & # > 1 1 , < < < < < < , 5 q 0 : o ",
"< < , 1 1 < < < 1 < < 5 q 9 ; # , 1 < < < < < < < < < 1 0 9 ; o ",
"< < 1 < , 1 < < < < , 1 0 9 & # , < < < , 1 1 < < < < 2 0 9 ; O ",
"< < < < < 1 < < < < < 2 0 9 ; # > 1 < 1 1 < < < < < < 2 q 9 ; O ",
"1 < < < < , 1 < < < , 2 S U o.5.%.U A 6 < < < < < < , 2 0 9 ; O ",
"< < < < < < 1 < < < y ' L z g d f l L ..M 1 < < 1 < , 1 0 9 ; o ",
"< < < < < < < < < C O.g k c x x x x x f ..D < < < < 1 5 q 9 : o ",
"1 1 < , < < < < y / l x c c x x x x c c l E N < , 1 9 0 u 9 : o ",
", , 1 5 1 1 1 7 U v x x c c b 5.m c x x x z } r 1 8 q q 0 1 ; + ",
"X - 9 q q 0 q S ~ x c c c ^ 8.8.8.) x c c c Y J 0 q q 0 , * @ @ ",
"  * 1 9 9 9 9 K b x c c m 8.v 8.v 5.T c c c c [ 9 9 9 < $   @ @ ",
"@ & * * * * * ' b x c c n 5.b 8.b l z x c c x *.* * * * # @ % @ ",
"@ @ $ X X X X *.x x c x x { 5.8./ m c x c x x -.X X X $ # + % % ",
"o # - < , , > *.b c c c x l l 0.~ 3.T x c c c >.< > < - # o % % ",
"& ; < 1 < 1 1 ` m c c x m T c 0.b L ) x c c b *.1 1 1 < > & % % ",
", , < < < < < G Q c c c b 6.W 8.W 2.L c c x T U < < < 1 9 2 & o ",
"< 1 < < < < < i >.c c x z v X.0.+.L k c x x *.V < < < 1 q 0 : o ",
"< < < < < < < 1 H ) x x c c j ~ l x c c c Q L 4 < < < 2 q 9 ; o ",
"< < < < < < < 1 w W &.c c c x k x x c c Q #.t < < < < 2 0 9 ; o ",
"< < < 1 < < < < < e Y 2.m x x x c c b -.Q 3 < < < < < 1 0 9 : % ",
"< < < < < < < < < , w s ~ >.*.$.#.-./ h w < < < < < < 1 0 9 ; o ",
"< < < < < < < < < < , 1 p V B B V a t 1 < < < < < < , 1 0 9 : % ",
"< < < < < < < < < < 1 8 q 9 ; # , 1 < < < < < < < < 1 2 q 9 & % ",
"1 1 < < < < < < , 1 5 q q 9 ; # , 1 < , < , , < , 1 9 q u 9 & % ",
", , 1 1 1 1 5 1 1 8 q q 0 1 & # > , 1 8 1 8 5 1 1 5 0 q 0 1 $ o ",
"X - 9 q q q q 0 q q q 0 , $ # @ X - 9 q q q 0 0 0 0 u 0 , # # % ",
". * 1 0 9 9 9 9 9 9 9 1 *   @ @   * 1 0 9 9 7 9 9 9 7 1 $ X % % ",
"@ & * - - = * = * - - * # @ % # @ & * - = = = = = = * X # o % % ",
"@ + . . . . . . . . . . # @ @ @ @ @ . . . . . .   X   X % % X % "
};